<svg id="Calque_2" data-name="Calque 2" xmlns="http://www.w3.org/2000/svg" viewBox="0 0 415 178"><path d="M169.82,14.29C128.06,46.54,82.08,73.79,36,99.3L46.08,75.87q11.61,31.8,22.14,64l6.93,21.46L45,148.41c14.24-7,29.8-14.29,44.31-20.82,11.81-5.2,26.74-11.58,38.7-16.39,6.33-2.47,13.28-5.27,19.63-7.63L139,122.5l-1.92-12.67c-1.72-12.38-3.4-26-4.53-38.35L147,77.74c-15,6.25-30.12,12.31-45.4,17.9-5.13,1.84-10.21,3.75-15.41,5.47L85.06,99l56.33-31.51,1.89-1c4.28,15.52,9.8,37.27,14,53l-1.44.72L55.62,169.93l-2.51,1.25-.83-2.68L25.45,82.37l-.55-1.76,1.65-.79c24.6-11.75,82.73-39.74,106.6-50.91l35.63-16.78,1,2.16Z"/><path d="M212.24,110.73l-11,26H179.1l33.14-79.42,33,79.42h-22Z"/><path d="M282.48,115.19H272.41v21.54H251.89V57.31h32a30.93,30.93,0,0,1,19.5,6.63q10.07,8.93,10.07,21.93a27.53,27.53,0,0,1-9,20.84A30.9,30.9,0,0,1,282.48,115.19ZM272.41,76.94V94.79h10.07a11.22,11.22,0,0,0,7.65-2.55,8.45,8.45,0,0,0,0-12.81,11.39,11.39,0,0,0-7.65-2.49Z"/><path d="M352.73,115.19H342.66v21.54H322.13V57.31h32a30.93,30.93,0,0,1,19.5,6.63q10.08,8.93,10.08,21.93a27.54,27.54,0,0,1-9,20.84A30.86,30.86,0,0,1,352.73,115.19ZM342.66,76.94V94.79h10.07a11.26,11.26,0,0,0,7.65-2.55,8.47,8.47,0,0,0,0-12.81,11.43,11.43,0,0,0-7.65-2.49Z"/></svg>